# xmcd
# Track frame offsets:
# 150
# 2694
# 18664
# 28686
# 41689
# 61051
# 71025
# 79988
# 94206
# 107689
# 127351
# 146186
# 159054
# 174826
# 188273
# 209980
# 220498
# 233537
# 242856
# 263332
# 276131
# 297355
# 311378
#
# Disc length: 4318 seconds
# Revision: 0
# Processed by: cddbd v1.5.2PL0 Copyright (c) Steve Scherf et al.
# Submitted via: VisiTrax 2.10.3.257 - For more info visit www.synapsa.com
#
DISCID=4a10dc17
DTITLE=John Denver - An evening with John Denver
DYEAR=1980
DGENRE=Country
TTITLE0=The music is you
TTITLE1=Farewell to Andromeda (Welcome to my morning)
TTITLE2=Mother nature's son
TTITLE3=Summer
TTITLE4=Today
TTITLE5=Saturday night in Toledo, Ohio
TTITLE6=Pickin' the sun
TTITLE7=Thank God I am a country boy
TTITLE8=Take me home, country roads
TTITLE9=Poems, prayers and promises
TTITLE10=Rocky Mountain High
TTITLE11=This old guitar
TTITLE12=Matthew
TTITLE13=Rocky Mountain Suite
TTITLE14=Sweet surrender
TTITLE15=Grandm's feather bed
TTITLE16=Annie's song
TTITLE17=The eagle and the hawk
TTITLE18=My sweet lady
TTITLE19=Annie's other song
TTITLE20=Boy from the country
TTITLE21=Rhymes and reasons
TTITLE22=Forest lawn
EXTD=Da LP
EXTT0=
EXTT1=
EXTT2=
EXTT3=
EXTT4=
EXTT5=
EXTT6=
EXTT7=
EXTT8=
EXTT9=
EXTT10=
EXTT11=
EXTT12=
EXTT13=
EXTT14=
EXTT15=
EXTT16=
EXTT17=
EXTT18=
EXTT19=
EXTT20=
EXTT21=
EXTT22=
PLAYORDER=
